<?xml version="1.0" standalone="no"?>
<!DOCTYPE svg PUBLIC "-//W3C//DTD SVG 20010904//EN"
 "http://www.w3.org/TR/2001/REC-SVG-20010904/DTD/svg10.dtd">
<svg version="1.0" xmlns="http://www.w3.org/2000/svg"
 width="292.000000pt" height="300.000000pt" viewBox="0 0 292.000000 300.000000"
 preserveAspectRatio="xMidYMid meet">

<g transform="translate(0.000000,300.000000) scale(0.100000,-0.100000)"
fill="#000000" stroke="none">
<path d="M0 1500 l0 -1500 1460 0 1460 0 0 1500 0 1500 -1460 0 -1460 0 0
-1500z m1795 932 c-2 -2 -29 1 -62 7 -32 6 -84 13 -117 17 -35 3 -55 9 -49 15
5 5 47 24 93 42 l85 34 27 -56 c14 -31 25 -57 23 -59z m-338 -27 c11 -24 10
-25 -15 -17 -34 9 -149 9 -184 -1 -43 -12 -88 -55 -88 -86 0 -15 5 -32 11 -38
9 -9 9 -19 -1 -42 -7 -18 -10 -45 -6 -65 8 -41 -12 -53 -55 -32 -16 8 -29 10
-29 6 0 -16 40 -32 74 -29 41 4 68 -16 96 -69 20 -38 22 -54 18 -130 -4 -53
-14 -108 -27 -142 -24 -63 -26 -91 -9 -108 16 -16 83 -15 117 2 40 21 106 97
136 156 22 43 54 157 55 193 0 5 10 1 22 -7 12 -9 29 -16 37 -16 10 0 6 6 -9
16 -39 26 -50 45 -50 86 0 30 8 47 37 79 30 33 33 40 18 38 -20 -3 -85 30 -85
43 0 4 5 10 10 13 22 14 10 67 -21 96 -22 20 -26 29 -15 29 9 0 45 12 81 26
45 18 74 24 92 19 l28 -7 -22 -16 c-21 -17 -43 -53 -43 -71 0 -17 31 -41 53
-41 12 0 72 16 134 36 78 26 120 35 139 30 l27 -7 -31 -19 c-35 -21 -41 -50
-17 -70 12 -10 44 -11 127 -7 125 8 114 12 236 -92 107 -92 191 -229 228 -371
22 -82 21 -265 0 -350 -18 -70 -57 -150 -98 -202 -25 -32 -117 -108 -130 -108
-3 0 -13 20 -22 45 -10 25 -22 45 -26 45 -5 0 -2 -16 6 -35 7 -19 14 -54 13
-77 -1 -43 -1 -43 -11 -13 -6 17 -24 50 -41 75 -16 25 -26 36 -22 25 36 -100
45 -144 45 -224 0 -252 -165 -425 -464 -488 -117 -25 -353 -24 -468 1 -87 19
-88 19 -94 54 -4 19 -4 71 -1 116 5 73 4 79 -9 56 -10 -18 -13 -55 -12 -133 2
-90 -1 -110 -15 -124 -14 -15 -21 -16 -37 -5 -11 7 -20 8 -20 3 0 -6 5 -13 11
-17 8 -4 7 -10 -1 -18 -8 -8 -16 -5 -30 14 -17 22 -20 23 -20 6 0 -18 -1 -18
-24 3 -57 54 -111 227 -104 333 6 79 29 123 78 150 63 35 144 12 226 -64 24
-22 44 -36 44 -31 0 6 -22 30 -48 55 -109 102 -236 102 -296 -2 -23 -39 -32
-155 -18 -217 7 -29 7 -43 0 -43 -6 0 -42 17 -82 37 -164 86 -246 230 -246
431 0 136 46 245 145 342 l45 44 46 -49 c26 -29 37 -37 26 -20 -78 120 -115
238 -115 370 0 179 60 326 181 444 109 107 226 165 395 196 103 19 110 18 124
-10z m-14 -39 c21 -8 47 -22 58 -32 20 -18 20 -18 -3 -30 -18 -10 -26 -9 -45
4 -20 12 -31 13 -63 3 -22 -6 -40 -16 -40 -22 0 -5 -16 -7 -38 -3 -27 4 -49 1
-71 -11 -25 -13 -36 -14 -47 -4 -32 26 2 81 62 99 44 13 145 11 187 -4z m0
-75 c13 -5 27 -17 31 -27 9 -24 -15 -37 -31 -16 -12 16 -14 16 -27 0 -18 -24
-36 -23 -36 3 0 11 -4 17 -10 14 -5 -3 -10 -1 -10 5 0 6 10 15 23 20 29 12 31
12 60 1z m-95 -48 c19 -27 19 -29 1 -63 -11 -19 -19 -50 -19 -69 l0 -34 -42 7
c-73 12 -112 69 -87 128 25 60 113 78 147 31z m204 -50 c15 -14 15 -17 -3 -46
-10 -18 -19 -42 -19 -55 0 -41 -92 -57 -152 -26 -28 15 -30 19 -25 60 6 60 28
82 86 87 59 5 92 -1 113 -20z m849 7 c30 -5 93 -22 142 -37 102 -31 98 -18 66
-194 -24 -134 -45 -210 -52 -189 -38 114 -64 175 -96 227 l-39 61 40 17 c22 8
60 18 84 22 24 3 44 10 44 16 0 14 -83 1 -134 -21 l-42 -19 -67 63 -67 64 34
0 c18 0 58 -4 87 -10z m-1104 -145 c-2 -5 -10 -10 -17 -10 -7 0 -15 5 -17 10
-2 6 6 11 17 11 11 0 19 -5 17 -11z m163 -40 c-7 -8 -16 -15 -21 -15 -5 0 -9
7 -9 15 0 9 9 15 21 15 18 0 19 -2 9 -15z m40 -120 c0 -21 -46 -112 -77 -152
-14 -18 -40 -42 -58 -53 -37 -23 -103 -27 -111 -7 -9 24 54 144 91 172 57 44
155 69 155 40z m-23 -1472 c10 -26 23 -33 71 -33 33 0 48 6 66 25 14 14 34 25
50 25 l26 0 0 -85 c0 -57 -5 -96 -15 -115 -19 -36 -54 -49 -71 -26 -10 15 -12
15 -18 1 -8 -23 -47 -19 -53 6 -6 21 -7 21 -19 4 -18 -25 -29 -12 -26 30 3 40
-12 72 -63 139 l-35 46 40 0 c30 0 42 -5 47 -17z"/>
<path d="M1785 2251 c-66 -16 -115 -67 -115 -119 0 -31 40 -66 92 -81 78 -23
150 -63 205 -113 30 -27 65 -53 79 -58 44 -17 89 13 104 70 22 83 -51 205
-157 262 -39 21 -149 51 -172 47 -3 -1 -19 -4 -36 -8z m137 -31 c87 -27 181
-109 202 -177 6 -17 2 -22 -16 -25 -18 -2 -23 -9 -23 -33 0 -23 5 -31 23 -33
12 -2 22 -7 22 -12 0 -12 -50 -50 -66 -50 -7 0 -36 21 -66 46 -75 65 -113 88
-198 118 -41 15 -83 34 -92 43 -40 36 -7 114 55 132 51 15 90 12 159 -9z"/>
<path d="M1538 1629 c-14 -7 -18 -23 -18 -65 0 -127 -96 -214 -237 -214 -34 0
-52 -4 -48 -10 3 -5 24 -10 45 -10 34 0 39 -3 45 -29 8 -36 27 -53 50 -45 13
5 16 16 13 46 -3 34 -1 39 21 45 14 3 26 2 28 -3 9 -25 23 -36 37 -31 18 7 22
52 6 62 -6 4 2 22 19 43 36 45 51 98 44 151 -5 33 -2 42 12 47 12 5 23 0 36
-17 15 -20 27 -24 71 -24 46 0 53 -3 53 -20 0 -14 -9 -21 -30 -25 -21 -4 -25
-7 -14 -12 11 -4 15 -19 15 -55 -1 -40 -5 -50 -23 -58 -12 -5 -25 -21 -28 -36
-8 -37 -91 -114 -155 -143 -47 -21 -51 -25 -27 -25 58 -2 151 66 190 137 14
26 35 53 46 60 17 10 21 21 19 57 -1 30 4 51 15 63 10 10 17 28 17 39 0 33
-25 46 -78 41 -42 -4 -50 -2 -58 16 -10 24 -41 31 -66 15z"/>
<path d="M1111 1552 c-2 -79 64 -132 164 -132 37 0 70 7 96 21 52 26 46 33
-11 13 -60 -21 -151 -15 -188 13 -16 11 -34 40 -44 69 -16 47 -16 47 -17 16z"/>
<path d="M1862 1557 c-19 -20 -22 -35 -22 -103 0 -43 -7 -97 -15 -119 -22 -63
-19 -171 6 -212 25 -39 84 -73 131 -73 39 0 27 13 -27 28 -23 6 -54 25 -70 42
-28 29 -30 36 -29 108 0 69 17 242 30 299 7 34 52 42 76 14 13 -17 27 -22 55
-20 58 3 70 0 77 -18 9 -23 -9 -39 -28 -24 -23 19 -70 10 -74 -14 -2 -11 -11
-28 -19 -37 -16 -18 -14 -59 3 -65 7 -2 9 8 6 26 -4 26 0 31 23 37 19 5 23 10
16 17 -17 17 -13 27 12 27 60 0 63 -77 6 -133 -11 -10 -19 -30 -19 -46 0 -20
-7 -31 -26 -40 -37 -16 -28 -46 13 -45 32 2 32 2 16 -23 -20 -30 -4 -55 24
-37 34 21 38 40 15 69 -23 29 -31 105 -12 105 19 0 50 64 50 102 0 20 5 40 10
43 16 10 11 41 -10 60 -14 13 -34 18 -67 16 -36 -1 -49 3 -60 19 -19 27 -64
26 -91 -3z"/>
<path d="M2280 1500 c0 -4 19 -10 43 -13 24 -3 52 -9 62 -12 18 -6 18 -5 3 4
-22 14 -108 31 -108 21z"/>
<path d="M2240 1433 c0 -4 19 -23 41 -42 30 -25 38 -28 30 -13 -12 22 -71 69
-71 55z"/>
<path d="M1027 913 c-15 -14 -6 -41 16 -47 62 -16 96 4 57 36 -22 18 -61 24
-73 11z"/>
<path d="M977 803 c-13 -12 -7 -41 9 -47 26 -10 79 -7 92 6 19 19 -15 48 -58
48 -20 0 -40 -3 -43 -7z"/>
<path d="M1505 361 c-11 -18 14 -41 44 -41 27 0 71 24 61 33 -12 12 -98 18
-105 8z"/>
</g>
</svg>
